Coordinates
version=1
nRows=8
nColumns=36
inDegrees=yes

Units are S.I. units (second, meters, Newtons, ...)
If the header above contains a line with 'inDegrees', this indicates whether rotational values are in degrees (yes) or radians (no).

endheader
time	pelvis_tilt	pelvis_list	pelvis_rotation	pelvis_tx	pelvis_ty	pelvis_tz	hip_flexion_r	hip_adduction_r	hip_rotation_r	knee_angle_r	knee_angle_r_beta	ankle_angle_r	subtalar_angle_r	mtp_angle_r	hip_flexion_l	hip_adduction_l	hip_rotation_l	knee_angle_l	knee_angle_l_beta	ankle_angle_l	subtalar_angle_l	mtp_angle_l	lumbar_extension	lumbar_bending	lumbar_rotation	arm_flex_r	arm_add_r	arm_rot_r	elbow_flex_r	pro_sup_r	arm_flex_l	arm_add_l	arm_rot_l	elbow_flex_l	pro_sup_l
      7.50000000	      7.07234990	     -3.46294176	     -7.36508877	      0.65314094	      1.00617608	     -0.05103614	     32.18185467	     -4.31916602	     -7.22290948	     75.92169595	      1.32508357	     -8.26382559	      4.13252670	     -7.49999987	     -1.24184390	     -0.77254803	      4.66130732	     24.74426611	      0.43186891	     17.85640716	      6.29726568	     -7.49999987	     -4.31390759	      4.79762884	      1.52408331	    -27.63922288	    -18.29289638	     10.57770700	    105.36528156	     85.41547733	     16.46401709	     -8.34500036	     21.66835863	    125.58339895	     81.28164988
      7.51666670	      7.95046752	     -3.46341747	     -7.32732674	      0.65088028	      1.00857111	     -0.05010160	     32.34691033	     -4.31165340	     -7.21927590	     76.39133157	      1.33328026	     -5.66982533	      0.57349231	     -7.49999987	     -1.63569313	     -0.75971885	      4.59861134	     25.77693564	      0.44989240	     17.92314350	      6.17074641	     -7.49999987	     -5.72310573	      4.64148090	      0.30516625	    -27.75845160	    -18.05798601	      9.73903188	    102.89855430	     85.72943536	     18.08036332	     -8.43953764	     20.75972014	    126.50045312	     81.28520584
      7.53333330	      8.40846190	     -3.52217132	     -7.24487897	      0.64968871	      1.00679895	     -0.04919196	     32.35196212	     -4.03747244	     -7.21733916	     76.15065606	      1.32907968	     -2.57265730	     -1.96015780	     -7.49999987	     -1.45949609	     -0.97404002	      4.45539029	     26.66410873	      0.46537649	     17.66140941	      5.90656003	     -7.49999987	     -6.34413095	      4.65639738	     -0.53118612	    -27.95992801	    -18.21319611	      9.54622444	    101.93981464	     85.99372034	     19.64571694	     -8.54318158	     20.19442663	    127.04896707	     81.27959910
      7.55000000	      8.76255864	     -3.73291976	     -7.04261789	      0.65273800	      1.00819475	     -0.04917007	     31.95670258	     -3.51475835	     -7.38846612	     75.42284967	      1.31637706	      0.66924854	     -3.71552450	     -7.49999987	     -1.52971212	     -1.30418784	      4.47903937	     26.98753500	      0.47102134	     18.01056708	      5.47180860	     -7.49999987	     -6.72825070	      4.74330562	     -1.47068224	    -28.20033432	    -17.93568039	      9.26501338	    101.26481495	     86.63901637	     20.39195816	     -8.50020323	     19.65990747	    127.94251279	     81.28154799
      7.56666670	      8.76972330	     -3.97361336	     -7.04873752	      0.65404483	      1.01050200	     -0.04894599	     31.45993298	     -2.81494299	     -7.47563889	     74.26492347	      1.29616743	      2.25395070	     -5.08553592	     -7.49999987	     -1.77573581	     -1.53856438	      4.52804586	     26.46679014	      0.46193263	     17.19225183	      5.05838220	     -7.49999987	     -6.48773403	      5.12694276	     -2.41368799	    -28.59130542	    -17.60637542	      8.80373382	    101.77790302	     94.54621058	     20.35645508	     -8.37579939	     18.59020118	    129.07004926	     81.78314939
      7.58333330	      8.49888272	     -4.16892348	     -6.84300087	      0.65928982	      1.00675719	     -0.04641421	     30.46585885	     -2.02410535	     -7.56778299	     72.45012053	      1.26449315	      2.45995305	     -5.23595547	     -7.49999987	     -2.21600931	     -1.88643125	      4.48501451	     25.52763702	      0.44554132	     16.91449876	      5.06566317	     -7.49999987	     -5.47422401	      5.26208157	     -2.68747117	    -29.55667303	    -16.94767491	      8.17018589	    103.21560997	     93.59430310	     20.36439661	     -7.91346796	     18.51597296	    129.60375484	     80.59939436
      7.60000000	      8.04770230	     -4.39369500	     -6.64760760	      0.66187022	      1.00893630	     -0.04413620	     29.56709369	     -0.91031915	     -7.69743253	     70.14727277	      1.22430087	      3.41844890	     -3.84852675	     -7.49999987	     -2.68602629	     -2.25642486	      4.40993243	     24.21371137	      0.42260899	     17.20584130	      4.84879551	     -7.49999987	     -4.28397375	      5.43276916	     -3.18091195	    -30.03739267	    -16.39022068	      7.82732706	    104.87662000	     94.34775554	     19.80793162	     -7.66922193	     18.28635874	    130.16343043	     80.43969420
      7.61666670	      7.53722041	     -4.50134811	     -6.44617219	      0.66164615	      1.01411359	     -0.04283534	     28.20429048	     -0.03110224	     -7.79953979	     66.73350324	      1.16471935	      2.39686962	     -3.55527384	     -7.49999987	     -2.86440370	     -2.53469667	      4.60710686	     22.54690219	      0.39351768	     16.06766947	      4.15121152	     -7.49999987	     -3.09528138	      5.51173200	     -3.28690921	    -30.23741984	    -15.40879237	      7.32658850	    106.07690812	     97.22004633	     18.99376514	     -7.35372618	     18.48896064	    130.16250589	     81.34987811
